# xmcd CD database file
#
# Track frame offsets:
#	150
#	24239
#	44476
#	64950
#	85700
#	105426
#	125900
#	145681
#	165152
#	170084
#	192170
#
# Disc length: 2820 seconds
#
# Revision: 0
# Processed by: cddbd v1.5.1PL0 Copyright (c) Steve Scherf et al.
# Submitted via: CDex 1.51
#
DISCID=8d0b020b
DTITLE=3rd Force - Driving Force
DYEAR=2005
DGENRE=New Age
TTITLE0=Believe In Me
TTITLE1=Ask Me Why
TTITLE2=Real Thing
TTITLE3=You Got It
TTITLE4=Get With It
TTITLE5=An Open Heart
TTITLE6=Is She Ready
TTITLE7=Gotta Gotta
TTITLE8=This Is The One (Intro)
TTITLE9=This Is The One
TTITLE10=Inside
EXTD=YEAR: 2005
EXTT0=
EXTT1=
EXTT2=
EXTT3=
EXTT4=
EXTT5=
EXTT6=
EXTT7=
EXTT8=
EXTT9=
EXTT10=
PLAYORDER=
